<svg width="20" height="16" viewBox="0 0 20 16" fill="none" xmlns="http://www.w3.org/2000/svg">
<path d="M7.75 8C7.75 6.75736 8.75736 5.75 10 5.75C11.2426 5.75 12.25 6.75736 12.25 8C12.25 9.24264 11.2426 10.25 10 10.25C8.75736 10.25 7.75 9.24264 7.75 8Z" fill="white"/>
<path fill-rule="evenodd" clip-rule="evenodd" d="M0 8C0 9.63938 0.424964 10.1915 1.27489 11.2957C2.97196 13.5004 5.81811 16 10 16C14.1819 16 17.028 13.5004 18.7251 11.2957C19.575 10.1915 20 9.63938 20 8C20 6.36062 19.575 5.80853 18.7251 4.70433C17.028 2.49956 14.1819 0 10 0C5.81811 0 2.97196 2.49956 1.27489 4.70433C0.424964 5.80853 0 6.36062 0 8ZM10 4.25C7.92893 4.25 6.25 5.92893 6.25 8C6.25 10.0711 7.92893 11.75 10 11.75C12.0711 11.75 13.75 10.0711 13.75 8C13.75 5.92893 12.0711 4.25 10 4.25Z" fill="white"/>
</svg>
