<svg width="741" height="151" viewBox="0 0 741 151" fill="none"
     xmlns="http://www.w3.org/2000/svg">
    <path opacity="0.25"
          d="M17.6495 133.8L17.6518 133.803C29.103 144.954 45.0386 150.5 65.3898 150.5C85.8829 150.5 101.959 144.884 113.552 133.594C125.297 122.294 131.13 105.658 131.13 83.7778V1V0.5H130.63H97.9035H97.4035V1V85.0352C97.4035 96.4136 94.5897 105.004 89.0394 110.888L89.0351 110.892C83.6273 116.772 75.9127 119.742 65.8148 119.742C55.7234 119.742 47.9372 116.706 42.3856 110.687C36.9704 104.522 34.2262 95.6473 34.2262 83.9873V1V0.5H33.7262H1H0.5V1V84.8256C0.5 106.149 6.19195 122.502 17.6495 133.8ZM163.463 147.695V148.195H163.963H196.265H196.765V147.695V55.904L267.909 148L268.059 148.195H268.305H296.143H296.643V147.695V1V0.5H296.143H263.842H263.342V1V89.8558L194.535 0.694528L194.385 0.5H194.139H163.963H163.463V1V147.695ZM331.353 147.695V148.195H331.853H445.119H445.619V147.695V118.985V118.485H445.119H364.866V88.6786H402.927H403.427V88.1786V59.4684V58.9684H402.927H364.866V30.2103H444.057H444.557V29.7103V1V0.5H444.057H331.853H331.353V1V147.695ZM473.716 147.695V148.195H474.216H506.942H507.442V147.695V103.052L524.102 86.0143L569.867 147.992L570.017 148.195H570.27H609.583H610.583L609.983 147.395L546.913 63.2827L607.179 1.3487L608.005 0.5H606.821H567.294H567.078L566.93 0.657324L507.442 63.8658V1V0.5H506.942H474.216H473.716V1V147.695ZM661.51 147.695V148.195H662.01H694.736H695.236V147.695V31.2581H740H740.5V30.7581V1V0.5H740H616.746H616.246V1V30.7581V31.2581H616.746H661.51V147.695Z"
          fill="white" fill-opacity="0.1" stroke="white"/>
</svg>
